<?xml version="1.0" standalone="no"?>

<svg width="32px" height="15px" viewBox="0 0 152 93" fill="none" xmlns="http://www.w3.org/2000/svg">
<path fill-rule="evenodd" clip-rule="evenodd" d="M131.7 23.8379C131.5 17.6379 131.1 16.0379 129.4 14.5379C126.3 12.0379 118.1 12.2379 115.5 14.8379C113.9 16.4379 113.5 18.1379 113.5 24.3379V31.8379H109.1C103.8 31.8379 102 33.6379 102 39.0379C102 43.9379 105.1 46.8379 110 46.8379H113.3L113.7 62.5379C114 77.1379 114.2 78.6379 116.5 82.8379C119.3 87.8379 124.8 91.4379 131.1 92.4379C136.5 93.2379 145.7 91.2379 149 88.6379C151.3 86.8379 151.6 85.9379 151.1 83.0379C150.2 77.0379 148 75.6379 141 76.3379C132.4 77.3379 132.1 76.7379 131.7 60.1379L131.3 46.8379H138C141.6 46.8379 145.5 46.3379 146.6 45.7379C149.6 44.2379 150.8 40.1379 149.5 36.2379C148.2 32.4379 146.6 31.7379 137.9 31.5379L132 31.3379L131.7 23.8379ZM16.3 2.43787C18.4 3.83787 18.5 4.63787 18.5 18.5379C18.5 31.6379 18.7 33.0379 20.2 32.4379C34.8 26.8379 50.8 32.6379 56.2 45.6379C58.8 51.8379 59.7 60.4379 58.5 67.1379C56.4 78.3379 51.3 85.2379 41.5 89.7379C30.1 95.0379 8.7 92.1379 3.1 84.5379C1.1 81.7379 1 80.4379 0.700002 43.7379L0.400002 5.83787L2.9 3.33787C5.9 0.337869 12.7 -0.0621306 16.3 2.43787ZM89.6 5.73787C94.9 11.1379 93 19.4379 85.8 22.5379C75.5 26.7379 66.6 13.6379 74.4 5.73787C76.8 3.33787 78.2 2.83787 82 2.83787C85.8 2.83787 87.2 3.33787 89.6 5.73787ZM86.3 30.9379C91.2 32.6379 91.7 35.9379 91.3 63.4379V63.4379C91.0266 82.8491 90.9401 88.9929 88.0389 90.9374C86.6955 91.8379 84.7486 91.8379 81.9 91.8379C77.4 91.8379 76.3 91.4379 74.6 89.2379C72.6 86.7379 72.5 85.3379 72.5 61.9379C72.5 48.4379 72.8 36.2379 73.2 34.9379C73.8 32.6379 78.3 29.9379 81.6 29.8379C82.5 29.8379 84.6 30.3379 86.3 30.9379ZM18.5 61.9379C18.5 47.5379 18.7 46.6379 23 45.5379C30 43.6379 37.6 47.8379 39.5 54.7379C43.2 68.2379 36.2 79.0379 24.8 77.4379C22.3 77.1379 19.9 76.6379 19.4 76.2379C18.9 75.9379 18.5 69.5379 18.5 61.9379Z" fill="#C4C4C4"/>
</svg>

